<svg xmlns="http://www.w3.org/2000/svg" viewBox="0 0 577.29 408.36"><defs><style>.cls-1{fill:#fff;}</style></defs><g id="graphics"><path class="cls-1" d="M217.54,84.56a2.32,2.32,0,0,0,2.08,3.57,11.75,11.75,0,0,1,3.76.53,11.87,11.87,0,0,1,3.43,1.66,2.31,2.31,0,0,0,3.71-1.8c.21-3.85-1.57-7.22-4.61-8.15S219.52,81.25,217.54,84.56Z"/><path class="cls-1" d="M344.89,91.47a12.26,12.26,0,0,1,7.51-.36,2.31,2.31,0,0,0,2.89-2.94c-1.1-3.7-3.92-6.27-7.09-6.12s-5.72,3-6.47,6.77A2.32,2.32,0,0,0,344.89,91.47Z"/><path class="cls-1" d="M392.35,239.38a17.57,17.57,0,0,0,2.77-9.45c0-9.42-7.33-17.94-20.24-18.81a3.66,3.66,0,0,0-.56-.1c-17.27-17.71-25.19-60.6-20.49-86.37,15.71-1.23,26.76-10.46,30.89-26.22,1.82-7-1.41-12.33-8.11-13.61a8.38,8.38,0,0,1-6.68-6l-.12-.32c-6.34-14.05-17.31-15.78-24.59-16.43,0,0,0-.08,0-.08-2.63.15-5.89.14-4.15-1.79,4.65-5.15,5.46-7.58,6-9.46,1.18-4.13-3.21-6.84-6.5-6.29-18.06,3-35.77,19.11-45.13,41-1.22,2.86-3.3,7.76-5.9,14.06-3.31-7.94-10-27.06-29.41-37.13a47.59,47.59,0,0,0-25.7-5.28c-7.32.45-22.54,1.37-30.74,19.76-.25.25-2.25,1.94-10.89,2.87a98.81,98.81,0,0,1-10.26.52h0a4.2,4.2,0,0,0-4.2,4.14c-.3,23.84,10.44,34.22,18.5,38.64l0,0c4.85,2.93,11,3.61,16.67,3.61,3.08,0,5.89-.2,8-.41,1.58,10,4.51,50.27-15.44,84.85-12.8,1-20,9.48-20,18.8a17.56,17.56,0,0,0,2.76,9.45s4.53,8.4,18.35,8.4h45.13a4.2,4.2,0,0,0,0-8.4H205.75c-7.83,0-11.33-4.75-11.33-9.45,0-6,5.22-10.21,13.26-10.46,3.69.82,8.15,2.91,10,8.14a4.2,4.2,0,0,0,7.93-2.78,20.09,20.09,0,0,0-11-11.86c18.7-34.15,17.28-73.5,15.25-87a37.2,37.2,0,0,0-1.55-6,4.2,4.2,0,0,0-4.51-2.43c-3.65.6-13.59,1.64-20.47-.66l-.58-.21c-7.53-3.28-12.51-9.73-14.74-18.93,2.73-.62,6.68-2.84,9.25-10.1,7.92-1.25,12.42-3.58,14-7.23,3.88-8.74,9.4-12.3,15.5-13.82C230,65.8,238.1,64.7,245,69.32a11.93,11.93,0,0,1,4.43,6.13c1.56,4.52.43,9.57-3.18,14.22-9.37,12.06-11.73,18.2-10.87,26.2a14.81,14.81,0,0,0,7.74,11.64,20.37,20.37,0,0,0,20.2-.26c6.57-4.06,10.38-11.28,12.23-23.45,0,0,0,0,0-.07-1.59-4.08-4.13-9.69-7.24-13.6.25,3.39.74,7.66-.26,12.19-2,9.09-3.28,13.65-8.39,17.36-4,2.88-9.18,2.32-12.48.49a6.48,6.48,0,0,1-3.46-5.2c-.47-4.32,0-8.39,9.15-20.15,5.75-7.4,7.57-16.79,3.19-25.07a24.68,24.68,0,0,1,3.41,2.07h0a53.25,53.25,0,0,1,12,11.6c1.78,2.29,8,10.5,13.56,27.16-12.7,31.54-31.28,81.1-31.28,101.24a36,36,0,0,0,71.93,0c0-10.9-6.5-34.15-19.31-69.1-2.92-8-5.89-15.79-8.68-22.91L293.43,132c11.22,29.42,23.85,66.14,23.85,79.87a27.56,27.56,0,1,1-55.12,0c0-21.28,23.89-81.31,31.93-101.15h0c4.48-11.07,8-19.25,9.09-21.88,5.95-13.92,18-29,32.65-34.36-10.95,10.49-7,16-3,16h10.86c6.75.56,13.79,1.32,18.42,11.45a16.91,16.91,0,0,0,9.77,10.3c-1,2.46-1.74,6.69,3.14,8.9-3.7,8.72-11.8,16.85-29.33,15.1a4.2,4.2,0,1,0-.84,8.35l.5,0c-2.16,13.39-1.37,30.93,2.2,47.64,3.71,17.38,10,31.83,18,41.51A20,20,0,0,0,356,224.83a4.2,4.2,0,1,0,7.92,2.78c1.83-5.21,6.25-7.3,9.93-8.13,17.36.82,16.61,19.9,1.56,19.9H327.22a4.2,4.2,0,0,0,0,8.4h48.17C388.67,247.78,392.35,239.38,392.35,239.38Z"/><path class="cls-1" d="M113.2,309q0,13.23-7.8,20.43t-22.16,7.21h-6v26.18H55.92V283.94H83.24q15,0,22.45,6.53T113.2,309Zm-36,10.26h3.89a10.63,10.63,0,0,0,7.64-2.7,9.79,9.79,0,0,0,2.83-7.45q0-8-8.85-8H77.24Z"/><path class="cls-1" d="M154.06,363.94q-15.27,0-23.72-8.12t-8.45-23.13q0-15.49,7.83-23.78t22.35-8.29q13.81,0,21.35,7.21T181,328.58V338H143.21a10.5,10.5,0,0,0,3.75,8q3.54,2.91,9.64,2.91a46.6,46.6,0,0,0,10.23-1.05A50.6,50.6,0,0,0,177,344.29v15.17A37.39,37.39,0,0,1,166.7,363,70.86,70.86,0,0,1,154.06,363.94Zm-1.24-49a8.75,8.75,0,0,0-6.23,2.35q-2.52,2.34-3,7.37h18.14a10.55,10.55,0,0,0-2.51-7.08A8.29,8.29,0,0,0,152.82,315Z"/><path class="cls-1" d="M222.84,347.26a31.47,31.47,0,0,0,10.2-2.1v15.38a41.64,41.64,0,0,1-8.12,2.62,46.19,46.19,0,0,1-9,.78q-10.65,0-15.34-5.21t-4.69-16V317.52h-7.4v-8.59l9.39-6.64,5.46-12.85h13.82V301.7h15v15.82h-15v23.8C217.12,345.28,219,347.26,222.84,347.26Z"/><path class="cls-1" d="M308.84,300.3A13.58,13.58,0,0,0,297,306.53q-4.26,6.24-4.26,17.19,0,22.78,17.32,22.79a35.54,35.54,0,0,0,10.15-1.46,99.94,99.94,0,0,0,9.88-3.51v18a54.72,54.72,0,0,1-22.35,4.37q-17.86,0-27.39-10.36t-9.53-30a47.89,47.89,0,0,1,4.61-21.54,33.09,33.09,0,0,1,13.28-14.28q8.67-5,20.38-5a56.28,56.28,0,0,1,24.46,5.56L327,305.15a73.64,73.64,0,0,0-8.74-3.45A30.47,30.47,0,0,0,308.84,300.3Z"/><path class="cls-1" d="M384.09,362.86l-4-8.1h-.43a24.06,24.06,0,0,1-8.69,7.24,28.83,28.83,0,0,1-11.45,1.94q-8.64,0-13.6-5.18t-5-14.58q0-9.76,6.8-14.55t19.71-5.37l10.2-.32v-.86q0-7.56-7.45-7.56-6.69,0-17,4.53l-6.1-13.92q10.68-5.52,27-5.51,11.76,0,18.22,5.83t6.45,16.3v40.11ZM368.43,349a9.5,9.5,0,0,0,6.56-2.43,8,8,0,0,0,2.73-6.31v-4.75l-4.86.21q-10.42.38-10.42,7.67Q362.44,349,368.43,349Z"/><path class="cls-1" d="M450,300.62a30.29,30.29,0,0,1,5.24.43l1.19.22-1.89,19.92a31.15,31.15,0,0,0-7.18-.65q-6.92,0-10,3.16c-2.09,2.1-3.13,5.14-3.13,9.09v30.07H413.08V301.7h15.71l3.29,9.77h1a21.13,21.13,0,0,1,7.37-7.86A17.68,17.68,0,0,1,450,300.62Z"/><path class="cls-1" d="M494.49,363.94q-15.28,0-23.73-8.12t-8.45-23.13q0-15.49,7.83-23.78t22.35-8.29q13.81,0,21.35,7.21t7.53,20.75V338H483.64a10.43,10.43,0,0,0,3.75,8q3.54,2.91,9.63,2.91a46.6,46.6,0,0,0,10.23-1.05,50.67,50.67,0,0,0,10.13-3.59v15.17A37.45,37.45,0,0,1,507.12,363,70.82,70.82,0,0,1,494.49,363.94Zm-1.24-49a8.75,8.75,0,0,0-6.24,2.35q-2.5,2.34-2.94,7.37h18.14a10.6,10.6,0,0,0-2.51-7.08A8.32,8.32,0,0,0,493.25,315Z"/></g></svg>