<svg xmlns="http://www.w3.org/2000/svg" viewBox="0 0 859.29 273.29"><defs><style>.cls-1{fill:#fff;}</style></defs><g id="graphics"><path class="cls-1" d="M395.58,132.78q0,13.22-7.8,20.43t-22.16,7.2h-6V186.6H338.3V107.67h27.32q15,0,22.46,6.53T395.58,132.78ZM359.63,143h3.88a10.61,10.61,0,0,0,7.64-2.7,9.8,9.8,0,0,0,2.84-7.45q0-8-8.86-8h-5.5Z"/><path class="cls-1" d="M436.45,187.68q-15.29,0-23.73-8.13t-8.45-23.13q0-15.49,7.83-23.78t22.35-8.29q13.82,0,21.35,7.21t7.53,20.76v9.39H425.6a10.43,10.43,0,0,0,3.75,8c2.35,1.95,5.57,2.92,9.63,2.92a46.6,46.6,0,0,0,10.23-1A51,51,0,0,0,459.33,168V183.2a37.28,37.28,0,0,1-10.25,3.51A71.77,71.77,0,0,1,436.45,187.68Zm-1.25-49a8.79,8.79,0,0,0-6.23,2.35c-1.67,1.57-2.66,4-2.94,7.37h18.14a10.56,10.56,0,0,0-2.51-7.07A8.33,8.33,0,0,0,435.2,138.71Z"/><path class="cls-1" d="M505.22,171a31.52,31.52,0,0,0,10.2-2.11v15.39a41.57,41.57,0,0,1-8.12,2.61,45.3,45.3,0,0,1-9,.79q-10.63,0-15.33-5.21t-4.7-16V141.25h-7.4v-8.58l9.4-6.64,5.45-12.85H499.5v12.25h15v15.82h-15v23.81Q499.5,171,505.22,171Z"/><path class="cls-1" d="M591.22,124a13.6,13.6,0,0,0-11.88,6.24q-4.26,6.22-4.26,17.19,0,22.78,17.33,22.78a35.59,35.59,0,0,0,10.15-1.46,100.69,100.69,0,0,0,9.87-3.51v18a54.55,54.55,0,0,1-22.35,4.38q-17.87,0-27.39-10.37t-9.53-30a47.76,47.76,0,0,1,4.62-21.54,33,33,0,0,1,13.28-14.28q8.66-5,20.37-5a56.1,56.1,0,0,1,24.46,5.56l-6.53,16.79a73.87,73.87,0,0,0-8.75-3.46A30.68,30.68,0,0,0,591.22,124Z"/><path class="cls-1" d="M666.47,186.6l-4.05-8.1H662a23.92,23.92,0,0,1-8.69,7.23,28.62,28.62,0,0,1-11.44,2q-8.64,0-13.61-5.19t-5-14.57q0-9.78,6.8-14.55t19.7-5.37l10.2-.33v-.86q0-7.56-7.45-7.56-6.69,0-17,4.54l-6.1-13.93q10.69-5.51,27-5.51,11.77,0,18.22,5.83t6.45,16.31V186.6Zm-15.65-13.82a9.53,9.53,0,0,0,6.56-2.43A8.09,8.09,0,0,0,660.1,164v-4.75l-4.86.22q-10.41.38-10.42,7.66Q644.82,172.79,650.82,172.78Z"/><path class="cls-1" d="M732.39,124.35a30.24,30.24,0,0,1,5.23.44l1.19.21-1.89,19.92a31.15,31.15,0,0,0-7.18-.65q-6.91,0-10,3.16t-3.13,9.1V186.6H695.46V125.43h15.71l3.29,9.77h1a21.18,21.18,0,0,1,7.37-7.85A17.61,17.61,0,0,1,732.39,124.35Z"/><path class="cls-1" d="M776.87,187.68q-15.29,0-23.73-8.13t-8.44-23.13q0-15.49,7.82-23.78t22.35-8.29q13.82,0,21.35,7.21t7.53,20.76v9.39H766a10.43,10.43,0,0,0,3.75,8q3.54,2.92,9.64,2.92a46.74,46.74,0,0,0,10.23-1A51.46,51.46,0,0,0,799.76,168V183.2a37.34,37.34,0,0,1-10.26,3.51A71.77,71.77,0,0,1,776.87,187.68Zm-1.24-49a8.81,8.81,0,0,0-6.24,2.35c-1.67,1.57-2.65,4-2.94,7.37h18.14a10.51,10.51,0,0,0-2.51-7.07A8.3,8.3,0,0,0,775.63,138.71Z"/><path class="cls-1" d="M94.78,75.11a2.32,2.32,0,0,0,2.08,3.56,12.4,12.4,0,0,1,3.77.53,12,12,0,0,1,3.42,1.67,2.32,2.32,0,0,0,3.72-1.8c.2-3.85-1.58-7.23-4.61-8.15S96.76,71.8,94.78,75.11Z"/><path class="cls-1" d="M222.14,82a12.26,12.26,0,0,1,7.51-.36,2.32,2.32,0,0,0,2.89-2.94c-1.11-3.7-3.92-6.28-7.09-6.12s-5.72,3-6.47,6.77A2.31,2.31,0,0,0,222.14,82Z"/><path class="cls-1" d="M269.6,229.93a17.57,17.57,0,0,0,2.77-9.45c0-9.42-7.33-17.94-20.25-18.81a5,5,0,0,0-.56-.11c-17.26-17.7-25.18-60.59-20.49-86.37C246.79,114,257.84,104.74,262,89c1.83-7-1.41-12.34-8.11-13.61a8.4,8.4,0,0,1-6.67-6c0-.11-.08-.21-.13-.32C240.71,55,229.74,53.3,222.47,52.66c0,0,0-.08,0-.08-2.63.15-5.89.14-4.15-1.79,4.64-5.15,5.46-7.59,6-9.46,1.19-4.14-3.2-6.84-6.49-6.3-18.07,3-35.77,19.12-45.13,41-1.22,2.86-3.3,7.77-5.9,14.06-3.31-7.93-10-27-29.42-37.12a47.46,47.46,0,0,0-25.69-5.28c-7.32.44-22.54,1.37-30.74,19.76-.25.25-2.25,1.94-10.89,2.86a100.51,100.51,0,0,1-10.26.53h0A4.19,4.19,0,0,0,55.54,75C55.23,98.8,66,109.18,74,113.61l0,0c4.86,2.92,11,3.61,16.67,3.61,3.09,0,5.9-.2,8-.41,1.58,10,4.51,50.26-15.44,84.85-12.81.95-20,9.48-20,18.8A17.57,17.57,0,0,0,66,229.93s4.53,8.39,18.35,8.39h45.13a4.2,4.2,0,1,0,0-8.39H83c-7.82,0-11.33-4.75-11.33-9.45,0-6,5.23-10.21,13.27-10.46,3.68.82,8.15,2.91,10,8.13a4.2,4.2,0,1,0,7.93-2.78,20.13,20.13,0,0,0-11-11.85c18.69-34.15,17.28-73.5,15.24-87a36.14,36.14,0,0,0-1.55-6,4.19,4.19,0,0,0-4.51-2.43c-3.65.6-13.58,1.64-20.47-.67a5.71,5.71,0,0,1-.58-.21c-7.52-3.28-12.5-9.72-14.73-18.92,2.72-.62,6.67-2.84,9.24-10.1,7.93-1.25,12.43-3.58,14-7.24C92.44,62.2,98,58.65,104.06,57.13c3.16-.78,11.29-1.89,18.2,2.74A11.92,11.92,0,0,1,126.68,66c1.57,4.53.44,9.58-3.18,14.23-9.36,12-11.73,18.2-10.86,26.2a14.79,14.79,0,0,0,7.73,11.64,20.36,20.36,0,0,0,20.21-.27c6.57-4.05,10.38-11.27,12.22-23.44a.64.64,0,0,1,0-.07c-1.6-4.09-4.13-9.7-7.24-13.61.24,3.4.73,7.67-.27,12.2-2,9.09-3.28,13.65-8.39,17.36-3.95,2.87-9.18,2.31-12.47.49a6.46,6.46,0,0,1-3.46-5.2c-.47-4.33,0-8.4,9.15-20.15,5.75-7.4,7.57-16.79,3.19-25.08a26.49,26.49,0,0,1,3.41,2.08h0a53.17,53.17,0,0,1,12,11.61c1.77,2.29,8,10.5,13.55,27.16C149.58,132.67,131,182.23,131,202.36a36,36,0,0,0,71.92,0c0-10.9-6.49-34.14-19.3-69.09-2.93-8-5.9-15.79-8.68-22.91l-4.27,12.14c11.22,29.42,23.85,66.14,23.85,79.86a27.56,27.56,0,1,1-55.12,0c0-21.28,23.88-81.3,31.92-101.14h0c4.48-11.07,8-19.25,9.08-21.88,6-13.92,18-29,32.66-34.36-11,10.49-7,16-3,16H220.9c6.75.55,13.8,1.31,18.43,11.44a16.89,16.89,0,0,0,9.76,10.31c-1,2.46-1.74,6.69,3.14,8.9-3.69,8.72-11.79,16.85-29.33,15.09a4.2,4.2,0,0,0-.83,8.36l.5,0c-2.16,13.4-1.38,30.94,2.19,47.65,3.72,17.37,10,31.83,18,41.5a20,20,0,0,0-9.49,11.12,4.2,4.2,0,0,0,7.93,2.78c1.82-5.2,6.25-7.29,9.93-8.12,17.36.81,16.61,19.9,1.55,19.9H204.47a4.2,4.2,0,1,0,0,8.39h48.16C265.92,238.32,269.6,229.93,269.6,229.93Z"/></g></svg>